# xmcd CD database file
#
# Track frame offsets:
#	150
#	19040
#	35846
#	53603
#	68942
#	95586
#	114000
#	129786
#	146006
#	159452
#	183752
#	201325
#	218884
#
# Disc length: 3292 seconds
#
# Revision: 0
# Processed by: cddbd v1.5.2PL0 Copyright (c) Steve Scherf et al.
# Submitted via: CDex 1.77
#
DISCID=b00cda0d
DTITLE=Al Basile - Quiet Money
DYEAR=2017
DGENRE=Blues
TTITLE0=Blues Got Blues 
TTITLE1=Simple Ain't Easy
TTITLE2=Do You Even Know?
TTITLE3=Wrong to be Right
TTITLE4=Quiet Money
TTITLE5=Put Some Salt on It
TTITLE6=Line By Line
TTITLE7=The Time is Now
TTITLE8=I Woulda Been Wrong
TTITLE9=Not Today
TTITLE10=True to Form
TTITLE11=You Got Two
TTITLE12=Who's Gonna Close My Eyes?
EXTD=YEAR: 2017
EXTT0=
EXTT1=
EXTT2=
EXTT3=
EXTT4=
EXTT5=
EXTT6=
EXTT7=
EXTT8=
EXTT9=
EXTT10=
EXTT11=
EXTT12=
PLAYORDER=
